<svg xmlns="http://www.w3.org/2000/svg" width="256" height="256" viewBox="0 0 100 100"><rect width="100" height="100" rx="50" fill="#ffffff"></rect><path fill="#121212" d="M48.74 70.70L48.74 70.70Q54.41 70.70 57.11 68.36Q59.81 66.02 59.81 62.33L59.81 62.33Q59.81 59.09 57.74 57.11Q55.67 55.13 51.17 53.78L51.17 53.78L44.42 51.71Q41.27 50.72 38.70 49.41Q36.14 48.11 34.34 46.36Q32.54 44.60 31.59 42.22Q30.65 39.83 30.65 36.68L30.65 36.68Q30.65 29.57 35.91 25.48Q41.18 21.38 50.18 21.38L50.18 21.38Q53.87 21.38 57.02 21.97Q60.17 22.55 62.46 23.59Q64.76 24.62 66.06 26.02Q67.37 27.41 67.37 29.03L67.37 29.03Q67.37 30.56 66.60 31.69Q65.84 32.81 64.76 33.53L64.76 33.53Q62.51 31.82 58.86 30.61Q55.22 29.39 50.81 29.39L50.81 29.39Q45.86 29.39 43.16 31.37Q40.46 33.35 40.46 36.68L40.46 36.68Q40.46 39.38 42.35 41.05Q44.24 42.71 48.56 43.97L48.56 43.97L53.78 45.50Q61.34 47.75 65.53 51.66Q69.71 55.58 69.71 62.33L69.71 62.33Q69.71 65.93 68.31 68.94Q66.92 71.96 64.31 74.12Q61.70 76.28 57.78 77.45Q53.87 78.62 48.92 78.62L48.92 78.62Q44.78 78.62 41.36 77.90Q37.94 77.18 35.46 76.01Q32.99 74.84 31.64 73.31Q30.29 71.78 30.29 70.07L30.29 70.07Q30.29 68.27 31.37 67.01Q32.45 65.75 33.89 65.12L33.89 65.12Q36.05 67.10 39.78 68.90Q43.52 70.70 48.74 70.70Z"></path></svg>